{
    "asset" : {
        "generator" : "Khronos glTF Blender I/O v1.8.19",
        "version" : "2.0"
    },
    "scene" : 0,
    "scenes" : [
        {
            "name" : "Scene",
            "nodes" : [
                0
            ]
        }
    ],
    "nodes" : [
        {
            "mesh" : 0,
            "name" : "Sphere"
        }
    ],
    "animations" : [
        {
            "channels" : [
                {
                    "sampler" : 0,
                    "target" : {
                        "node" : 0,
                        "path" : "translation"
                    }
                },
                {
                    "sampler" : 1,
                    "target" : {
                        "node" : 0,
                        "path" : "rotation"
                    }
                },
                {
                    "sampler" : 2,
                    "target" : {
                        "node" : 0,
                        "path" : "scale"
                    }
                }
            ],
            "name" : "SphereAction",
            "samplers" : [
                {
                    "input" : 5,
                    "interpolation" : "LINEAR",
                    "output" : 6
                },
                {
                    "input" : 5,
                    "interpolation" : "LINEAR",
                    "output" : 7
                },
                {
                    "input" : 8,
                    "interpolation" : "LINEAR",
                    "output" : 9
                }
            ]
        }
    ],
    "materials" : [
        {
            "alphaMode" : "BLEND",
            "doubleSided" : true,
            "name" : "Explode Fade",
            "pbrMetallicRoughness" : {
                "baseColorFactor" : [
                    0.5106121301651001,
                    0.7192213535308838,
                    0.8000000715255737,
                    0.6727272868156433
                ],
                "metallicFactor" : 0,
                "roughnessFactor" : 0
            }
        }
    ],
    "meshes" : [
        {
            "name" : "Sphere",
            "primitives" : [
                {
                    "attributes" : {
                        "POSITION" : 0,
                        "NORMAL" : 1,
                        "TEXCOORD_0" : 2,
                        "TEXCOORD_1" : 3
                    },
                    "indices" : 4,
                    "material" : 0
                }
            ]
        }
    ],
    "accessors" : [
        {
            "bufferView" : 0,
            "componentType" : 5126,
            "count" : 6168,
            "max" : [
                1.3617924451828003,
                1.035184621810913,
                1.4114079475402832
            ],
            "min" : [
                -1.3334547281265259,
                -2.0241734981536865,
                -1.74270498752594
            ],
            "type" : "VEC3"
        },
        {
            "bufferView" : 1,
            "componentType" : 5126,
            "count" : 6168,
            "type" : "VEC3"
        },
        {
            "bufferView" : 2,
            "componentType" : 5126,
            "count" : 6168,
            "type" : "VEC2"
        },
        {
            "bufferView" : 3,
            "componentType" : 5126,
            "count" : 6168,
            "type" : "VEC2"
        },
        {
            "bufferView" : 4,
            "componentType" : 5123,
            "count" : 8664,
            "type" : "SCALAR"
        },
        {
            "bufferView" : 5,
            "componentType" : 5126,
            "count" : 251,
            "max" : [
                10.416666666666666
            ],
            "min" : [
                0
            ],
            "type" : "SCALAR"
        },
        {
            "bufferView" : 6,
            "componentType" : 5126,
            "count" : 251,
            "type" : "VEC3"
        },
        {
            "bufferView" : 7,
            "componentType" : 5126,
            "count" : 251,
            "type" : "VEC4"
        },
        {
            "bufferView" : 8,
            "componentType" : 5126,
            "count" : 2,
            "max" : [
                10.416666666666666
            ],
            "min" : [
                0
            ],
            "type" : "SCALAR"
        },
        {
            "bufferView" : 9,
            "componentType" : 5126,
            "count" : 2,
            "type" : "VEC3"
        }
    ],
    "bufferViews" : [
        {
            "buffer" : 0,
            "byteLength" : 74016,
            "byteOffset" : 0
        },
        {
            "buffer" : 0,
            "byteLength" : 74016,
            "byteOffset" : 74016
        },
        {
            "buffer" : 0,
            "byteLength" : 49344,
            "byteOffset" : 148032
        },
        {
            "buffer" : 0,
            "byteLength" : 49344,
            "byteOffset" : 197376
        },
        {
            "buffer" : 0,
            "byteLength" : 17328,
            "byteOffset" : 246720
        },
        {
            "buffer" : 0,
            "byteLength" : 1004,
            "byteOffset" : 264048
        },
        {
            "buffer" : 0,
            "byteLength" : 3012,
            "byteOffset" : 265052
        },
        {
            "buffer" : 0,
            "byteLength" : 4016,
            "byteOffset" : 268064
        },
        {
            "buffer" : 0,
            "byteLength" : 8,
            "byteOffset" : 272080
        },
        {
            "buffer" : 0,
            "byteLength" : 24,
            "byteOffset" : 272088
        }
    ],
    "buffers" : [
        {
            "byteLength" : 272112,
            "uri" : "data:application/octet-stream;base64,"
        }
    ]
}
